<svg id="Livello_1" data-name="Livello 1" xmlns="http://www.w3.org/2000/svg" viewBox="0 0 580.05 139.55"><defs><style>.cls-1{fill:#703030;}.cls-2{fill:#b68787;}</style></defs><title>logobadgenode</title><path class="cls-1" d="M139,84.85c4.56-.42,9.14-.91,13.74-1.24,3.41-.24,6.84-.34,10.26-.37,8.45-.09,16.64,1.26,24.23,5.12a30.54,30.54,0,0,1,5.49,3.86c6.38,5.26,10.1,12.17,12.09,20.06.56,2.21.85,4.49,1.61,6.79a19.64,19.64,0,0,0,.72-2.21,42.07,42.07,0,0,1,10-20.67,36.2,36.2,0,0,1,14.68-10.14,62.35,62.35,0,0,1,12.36-2.78,48.29,48.29,0,0,1,23.15,2.48c1.1.39,2.16.9,3.28,1.37-1.1,5.18-2.16,10.22-3.29,15.24a1.4,1.4,0,0,1-1.22.43c-6.47-3.19-13.43-3.84-20.39-3.15-6.16.62-11.64,3.09-15.66,8.27a28.34,28.34,0,0,0-5.86,15.43,51.31,51.31,0,0,0-.34,7.53c.47,7.89,2.42,15.31,8.34,21a20.49,20.49,0,0,0,14.52,6,84.49,84.49,0,0,0,8.54-.7c.87-.09,1.27-.56,1.26-1.55-.05-5.92,0-11.84,0-17.92H244.71V122.11h28.56v1.59q0,21.93,0,43.85c0,1.16-.15,1.85-1.49,2.17-4.39,1.05-8.71,2.34-13.11,3.37a47.17,47.17,0,0,1-14.26,1.07c-5.7-.43-11.32-1.34-16.63-3.78-11.27-5.17-17.25-14.36-20.23-25.92-.61-2.37-1-4.78-1.85-7.18-.48,2.15-.87,4.33-1.45,6.45a41.77,41.77,0,0,1-8.35,16.55c-5.67,6.65-13,10.36-21.45,12.06-3.88.78-7.86,1.09-11.81,1.48a52.5,52.5,0,0,1-7.72.34c-5.29-.26-10.56-.76-15.91-1.17Zm17.33,73.5c1.79.09,3.45.32,5.09.24a53.3,53.3,0,0,0,7.26-.73c7.39-1.4,12.62-5.73,15.82-12.41a37.69,37.69,0,0,0,3.37-14.17,48,48,0,0,0-1.06-14.77c-1.37-5.46-3.92-10.31-8.57-13.63-6.29-4.5-13.5-4.66-20.82-3.63-.42.06-1,1-1,1.47C156.37,119.8,156.37,138.88,156.37,158.35Z" transform="translate(-12.93 -82.47)"/><path class="cls-2" d="M330.78,84c6.49,0,12.84,0,19.18,0a1.8,1.8,0,0,1,1.31.89q6.64,13.73,13.2,27.49c1.83,3.83,3.72,7.63,5.39,11.52,2.17,5,4.16,10.12,6.18,15.2.89,2.23,1.7,4.5,2.54,6.75l.48-.05a6.08,6.08,0,0,0,.18-1.25c-.21-2.62-.61-5.23-.66-7.85-.29-16.81-.51-33.62-.75-50.43,0-.71,0-1.42,0-2.22h15.85v89.08h-3.29c-3.81,0-7.64-.22-11.43.07-2.7.21-3.9-.84-4.92-3.19-2.44-5.64-5.2-11.14-7.79-16.72-6.81-14.65-14-29.13-19.34-44.42a7.56,7.56,0,0,0-.74-1.23c.2,21.85.4,43.55.6,65.37h-16Zm48.33,62.37s-.1.06-.1.1,0,.08.07.12.1-.06.11-.1S379.14,146.36,379.11,146.32Z" transform="translate(-12.93 -82.47)"/><path class="cls-1" d="M13,84.72c5.8-.38,11.49-.77,17.18-1.13a54.39,54.39,0,0,1,7.53-.31c5.18.4,10.42.41,15.38,2.38,7.92,3.15,13,8.47,14.06,17.23a21,21,0,0,1-2.62,13.39,19.9,19.9,0,0,1-9.88,8.46c.94.46,1.73.87,2.55,1.23,7,3.07,11,8.7,12.34,16,1.54,8.43-.28,16.19-6.17,22.78-4.12,4.63-9.5,6.73-15.32,8-7.24,1.6-14.61,1.65-22,1.42C22,174,18,173.5,14,173.07c-.36,0-.72-.61-1-1-.14-.22,0-.58,0-.89V84.72ZM30.4,133.63c0,8.21,0,16.18,0,24.14,0,1,.17,1.64,1.37,1.58,3.17-.15,6.38,0,9.52-.43a11.34,11.34,0,0,0,8.64-5.19,13.81,13.81,0,0,0,1.83-9.41,11.22,11.22,0,0,0-6.47-8.93C40.54,133.07,35.54,133.68,30.4,133.63Zm0-14.34a94.07,94.07,0,0,0,9.78-.6c6.72-1.1,10.41-5,9.77-12.08a8.66,8.66,0,0,0-5.56-7.53c-4.32-1.9-8.73-1.29-13.15-.93-.31,0-.8.73-.81,1.12C30.38,105.83,30.4,112.38,30.4,119.29Z" transform="translate(-12.93 -82.47)"/><path class="cls-2" d="M497.23,173.88c-7.87.9-15.62-.27-23.47-1V85.1c2.42-.38,4.86-1,7.32-1.11,6.67-.36,13.35-.84,20-.68C508.77,83.5,516.27,85,523,89a34.15,34.15,0,0,1,12.75,13.24,39.8,39.8,0,0,1,4.71,15.06,86.15,86.15,0,0,1,.69,11.1c-.31,9.88-2.15,19.43-7.58,28a40.19,40.19,0,0,1-3.37,4c-.25-.46-.47-.92-.74-1.36-1.44-2.3-2.75-4.69-4.36-6.86-1.75-2.35-4.55-3.15-7.16-4.14.49-1,1.05-2,1.47-3a43.27,43.27,0,0,0,3-12.26,48.57,48.57,0,0,0-.88-16.41c-1.36-5.5-4-10.27-8.84-13.67-5.67-4-12.11-4.23-18.62-3.8-3,.19-3,.47-3,3.55q0,26.64,0,53.28c0,1.35.06,2.47,1.49,3-.17.3-.32.61-.5.9a58,58,0,0,0-3.84,6.45c-.46,1,0,2.52.3,3.7.07.25,1.71.35,2.38,0a3.24,3.24,0,0,0,1.25-2,25.35,25.35,0,0,1,4.44-9.29c1.66-.11,3.33-.1,5-.35,5.23-.78,10-2.59,13.46-6.82,6.48,2.15,9.63,7,10.93,13.38-6.89,5.48-15,7.77-23.55,8.73.25-.91.54-1.82.76-2.74.48-2,1-4,1.35-6a1.91,1.91,0,0,0-1.52-2.46,2.09,2.09,0,0,0-2.49,1.6C499.36,167.19,498.31,170.54,497.23,173.88Z" transform="translate(-12.93 -82.47)"/><path class="cls-2" d="M437,174.21c-10.36,1.21-19.35-1.62-26.9-8.91-6.34-6.13-9.64-13.83-11.56-22.23a59.48,59.48,0,0,1-1.42-17.48c.6-8.31,2.24-16.39,6.26-23.84,5.53-10.23,13.8-17,25.37-18.78,12.38-1.93,23.19,1.69,31.44,11.35a42,42,0,0,1,9.44,21.85,87.84,87.84,0,0,1,1.05,14.47A56.5,56.5,0,0,1,465,155a35.11,35.11,0,0,1-15.67,16,29.83,29.83,0,0,1-3.65,1.31c.63-2.52,1.44-5,1.83-7.55.28-1.81-1.07-2.63-2.77-1.9a4.52,4.52,0,0,0-1.85,1.32,59.89,59.89,0,0,0-3.66,5.47C438.33,171.05,437.72,172.66,437,174.21Zm-21.94-45.45c.18,1.91.39,3.81.52,5.72.44,6.55,2.2,12.66,6.19,18a14.8,14.8,0,0,0,11.48,6.14c5.9.28,10.29-2.47,13.57-7.24,4.12-6,5.27-12.81,5.74-19.8a63.36,63.36,0,0,0-.32-8.81,33.89,33.89,0,0,0-5.79-17.41c-2.87-4.1-6.74-6.62-11.77-6.84-6.75-.3-11.47,3.15-14.64,8.84C416.34,114,415.21,121.25,415.06,128.76Z" transform="translate(-12.93 -82.47)"/><path class="cls-1" d="M137.06,173.07H118.41c-1.87-7.29-3.72-14.54-5.65-21.78a1.78,1.78,0,0,0-1.34-1q-9.89-.09-19.77,0a1.71,1.71,0,0,0-1.3,1c-1.8,7.21-3.52,14.45-5.27,21.73H67.14c1.5-5.69,3-11.33,4.46-17,2.86-11,5.67-21.9,8.55-32.84,2.71-10.25,5.49-20.49,8.23-30.73.65-2.43,1.38-4.86,1.87-7.32.21-1,.64-1.25,1.54-1.25,6.72,0,13.43.07,20.14,0,1.63,0,1.69,1,1.94,2,1.37,5.09,2.68,10.2,4,15.3q2.7,10.19,5.44,20.37,3.31,12.48,6.65,25Q133.51,159.78,137.06,173.07ZM109.88,135c-2.9-12-5.77-23.79-8.64-35.61q-4,17.75-8,35.61Z" transform="translate(-12.93 -82.47)"/><path class="cls-1" d="M278.47,84h47v16.55H295.92V119h27.7v16.36H295.88v21h31.35V173H278.47Z" transform="translate(-12.93 -82.47)"/><path class="cls-2" d="M593,173.06H544.24v-89h46.92v16.51H561.67v18.49h27.68v16.31H561.67v21H593Z" transform="translate(-12.93 -82.47)"/><path class="cls-1" d="M517.93,148.06c2.61,1,5.41,1.79,7.16,4.14,1.61,2.17,2.92,4.56,4.36,6.86.27.44.49.9.74,1.36.4,3,1,6,1.16,9,.25,5.72-1,11.24-2.78,16.87,2.46-.53,4.8-1,7.13-1.58.26-.06.43-.48.64-.74,1-1.24,1.94-2.55,3-3.71a5,5,0,0,1,5.33-1.12,3.64,3.64,0,0,1,1.87,2.46c.34,1.71-1.2,2.5-2.45,3.09a23.1,23.1,0,0,1-4,1.07,23.27,23.27,0,0,0-.69,3.65c-.08,2.36,1.94,3.68,4.22,3,3.35-1,7.25-3.91,9.77-6.3-.78-1.81-1.16-3.62.54-5.18,1-.91,2.3-1.49,3.32-.44.54.55.32,1.86.45,2.82l-.6.24a11.68,11.68,0,0,0,1.5.84c3.46,1.27,3.49,3,2.32,6.58-.35,1.05-1,2-1.26,3.08a2.18,2.18,0,0,0,.24,1.84,2.13,2.13,0,0,0,1.92.27,11.48,11.48,0,0,0,3.6-2.16c2.33-2.34,5-4.31,6.3-7.66,1.47-3.93,4.63-5.86,8.85-5.91a3.59,3.59,0,0,1,1.86.4,2,2,0,0,1,.79,1.5c0,.34-.71.88-1.14.93a8.52,8.52,0,0,1-2.08-.31c-.5-.08-1-.11-1.41-.15l2.24,2.44-.16.52,11.81-1.37c.4,2-.4,2.72-3.17,2.91s-5.5.34-8.28.51c-.65,1.74-1.21,3.64-2,5.4a4.86,4.86,0,0,1-5.81,2.7c-1.09-.38-1.9-1.54-2.79-2.31a60.67,60.67,0,0,1-6.52,4.4,8,8,0,0,1-4.78.72c-3-.54-4.48-3.65-3.61-7,.33-1.26.69-2.52,1-3.78l-.43-.26c-1.54,1.22-3,2.56-4.64,3.64-3.32,2.19-6.8,4-11,4-4.57-.06-6.69-2.82-5.5-7.75a62.47,62.47,0,0,0-7.54,1.87c-.75.28-.93,1.94-1.49,2.89-2.45,4.13-4.75,8.36-7.47,12.31a53.6,53.6,0,0,1-6.31,7.1,35.18,35.18,0,0,1-16.35,9.76,16.86,16.86,0,0,1-7.23.36c-4-.79-6.25-5.61-5.4-9.81,1.12-5.59,4.9-9,9.3-12,1.49-1,2.2-1.7,2-3.82A54.21,54.21,0,0,1,496,178.61c.38-1.59.84-3.15,1.26-4.73,1.08-3.34,2.13-6.69,3.27-10a2.09,2.09,0,0,1,2.49-1.6,1.91,1.91,0,0,1,1.52,2.46c-.37,2-.87,4-1.35,6-.22.92-.51,1.83-.76,2.74-2.95,7.5-5.29,15.14-5.59,23.32a2.62,2.62,0,0,0,.51-.05,121.55,121.55,0,0,1,24.94-8.91c2-.48,2.67-1.71,3-3.46.51-2.89,1.11-5.77,1.56-8.67a23.29,23.29,0,0,0-.84-11c-1.3-6.37-4.45-11.23-10.93-13.38a15.39,15.39,0,0,0-3.2-.73c-6.5-.14-11.26,3.14-15.23,7.9a25.35,25.35,0,0,0-4.44,9.29,3.24,3.24,0,0,1-1.25,2c-.67.32-2.31.22-2.38,0-.34-1.18-.76-2.69-.3-3.7a58,58,0,0,1,3.84-6.45c.18-.29.33-.6.5-.9.21-.1.5-.13.63-.29a29.52,29.52,0,0,1,13.05-9.38A22.91,22.91,0,0,1,517.93,148.06ZM495,201.38c-1.91,1.86-3.68,3.43-5.24,5.18a9,9,0,0,0-2.6,6.92c.48,4.09,3.42,7.23,8.77,5.43a35.93,35.93,0,0,0,12.58-7.64,56.4,56.4,0,0,0,14.56-21c-9,2.54-17.53,5.39-25.89,9.89a25.2,25.2,0,0,0,3,3.31,2.1,2.1,0,0,1,1,2.44,1.89,1.89,0,0,1-1.31,1.16c-1,0-2.19.62-2.75-.91S495.86,203.25,495,201.38Zm80.11-8.84.91.27,2.38-5.51-2.14-1.55Zm-18.75-5.11-.11-.13-.13.12.17.13Z" transform="translate(-12.93 -82.47)"/><path class="cls-1" d="M437,174.21c.72-1.55,1.33-3.16,2.19-4.63a59.89,59.89,0,0,1,3.66-5.47,4.52,4.52,0,0,1,1.85-1.32c1.7-.73,3.05.09,2.77,1.9-.39,2.55-1.2,5-1.83,7.55-2.81,5.58-7,10.4-9.45,16.17,6.48-4.87,8.1-4.8,10.79.54a40.4,40.4,0,0,0,4.15-1.39,3.92,3.92,0,0,0,1.46-1.53,24.62,24.62,0,0,1,1.83-3.18,2.29,2.29,0,0,1,2.15-.38,2.12,2.12,0,0,1,.67,2c-.54,1.73-1.41,3.35-2.07,5-.37,1-.58,2-.86,3l.4.26c.91-.95,1.89-1.85,2.71-2.87,1.11-1.37,2.06-2.88,3.17-4.25a4.92,4.92,0,0,1,1.51-.86c.23.5.66,1,.65,1.48-.05,2.15-.23,4.3-.36,6.44l-.25.63.5-.3c1.93-1.32,3.81-2.72,5.81-3.92a12.29,12.29,0,0,1,6.17-2.18l.34.48c-.5.43-.93,1.06-1.51,1.25a24.27,24.27,0,0,0-11.06,7.72c-1.15,1.39-1.29,3.67-1.77,5.58-1.51,6-3.31,11.87-7.15,16.86a6,6,0,0,1-2.62,1.75,2.09,2.09,0,0,1-2.88-2.32,20.91,20.91,0,0,1,2-6.67c2.62-4.77,5.77-9.26,8.39-14,1-1.9,1.25-4.26,1.83-6.41l-.73-.3c-.47.62-.9,1.26-1.42,1.83a10.84,10.84,0,0,1-2.26,2.23c-2,1.21-4,0-4.25-2.45a31.39,31.39,0,0,1,0-3.22c-.55.19-1.25.4-1.93.65a4.61,4.61,0,0,0-3.25,4c-.72,4.14-2.2,8.1-5.84,10.67a6.66,6.66,0,0,1-3.77,1.14c-1.82,0-2.78-2.32-2.16-4.51.15-.54.37-1.07.61-1.76-1.78.56-2.38-.11-2.18-1.7.56-4.46,1-8.94,1.71-13.37C435.28,180.91,436.23,177.57,437,174.21Zm4.87,20.39c-2.12,2.22-4.46,4.31-4.49,7.72,2.67-1.81,3.88-4.51,4.74-7.43l.24-.63Zm-6.58,4.1c.2-.17.42-.33.6-.51,2.15-2.21,4.26-4.48,6.47-6.62,1-.94,1.05-2.16,0-3.48s-2-.85-2.82.07C437,191.14,436,194.86,435.29,198.7Zm9.06-29.25-.61-.29-2.43,4.39.66.35Z" transform="translate(-12.93 -82.47)"/><path class="cls-2" d="M444.35,169.45,442,173.9l-.66-.35,2.43-4.39Z" transform="translate(-12.93 -82.47)"/></svg>